<mxfile host="app.diagrams.net" modified="2022-04-25T23:52:00.879Z" agent="5.0 (Macintosh; Intel Mac OS X 10_15_7) AppleWebKit/605.1.15 (KHTML, like Gecko) Version/15.4 Safari/605.1.15" etag="SE31KSnkjcLlV-T3KTak" version="17.4.0" type="github">
  <diagram id="5wYs3-YkHAUaMFGnLMlj" name="Page-1">
    <mxGraphModel dx="1611" dy="976" grid="1" gridSize="10" guides="1" tooltips="1" connect="1" arrows="1" fold="1" page="1" pageScale="1" pageWidth="1169" pageHeight="827" math="0" shadow="0">
      <root>
        <mxCell id="0" />
        <mxCell id="1" parent="0" />
        <mxCell id="_IHuSCODtMuCv_vOUnTP-1" value="obj_faction" style="rounded=1;whiteSpace=wrap;html=1;" vertex="1" parent="1">
          <mxGeometry x="435" y="189" width="120" height="60" as="geometry" />
        </mxCell>
        <mxCell id="_IHuSCODtMuCv_vOUnTP-2" value="obj_faction_neutral" style="rounded=1;whiteSpace=wrap;html=1;" vertex="1" parent="1">
          <mxGeometry x="255" y="309" width="120" height="60" as="geometry" />
        </mxCell>
        <mxCell id="_IHuSCODtMuCv_vOUnTP-3" value="obj_faction_ally" style="rounded=1;whiteSpace=wrap;html=1;" vertex="1" parent="1">
          <mxGeometry x="435" y="309" width="120" height="60" as="geometry" />
        </mxCell>
        <mxCell id="_IHuSCODtMuCv_vOUnTP-4" value="obj_faction_enemy" style="rounded=1;whiteSpace=wrap;html=1;" vertex="1" parent="1">
          <mxGeometry x="635" y="309" width="120" height="60" as="geometry" />
        </mxCell>
        <mxCell id="_IHuSCODtMuCv_vOUnTP-5" value="obj_asteroid" style="rounded=1;whiteSpace=wrap;html=1;" vertex="1" parent="1">
          <mxGeometry x="255" y="419" width="120" height="60" as="geometry" />
        </mxCell>
        <mxCell id="_IHuSCODtMuCv_vOUnTP-6" value="obj_ship" style="rounded=1;whiteSpace=wrap;html=1;" vertex="1" parent="1">
          <mxGeometry x="435" y="419" width="120" height="60" as="geometry" />
        </mxCell>
        <mxCell id="_IHuSCODtMuCv_vOUnTP-7" value="obj_par_enemy" style="rounded=1;whiteSpace=wrap;html=1;" vertex="1" parent="1">
          <mxGeometry x="635" y="419" width="120" height="60" as="geometry" />
        </mxCell>
        <mxCell id="_IHuSCODtMuCv_vOUnTP-8" value="obj_par_raider" style="rounded=1;whiteSpace=wrap;html=1;" vertex="1" parent="1">
          <mxGeometry x="475" y="579" width="120" height="60" as="geometry" />
        </mxCell>
        <mxCell id="_IHuSCODtMuCv_vOUnTP-9" value="obj_par_hunter" style="rounded=1;whiteSpace=wrap;html=1;" vertex="1" parent="1">
          <mxGeometry x="635" y="579" width="120" height="60" as="geometry" />
        </mxCell>
        <mxCell id="_IHuSCODtMuCv_vOUnTP-10" value="obj_par_brute" style="rounded=1;whiteSpace=wrap;html=1;" vertex="1" parent="1">
          <mxGeometry x="795" y="579" width="120" height="60" as="geometry" />
        </mxCell>
        <mxCell id="_IHuSCODtMuCv_vOUnTP-12" value="" style="endArrow=none;html=1;rounded=0;" edge="1" parent="1" target="_IHuSCODtMuCv_vOUnTP-1">
          <mxGeometry width="50" height="50" relative="1" as="geometry">
            <mxPoint x="494.5" y="309" as="sourcePoint" />
            <mxPoint x="494.5" y="259" as="targetPoint" />
          </mxGeometry>
        </mxCell>
        <mxCell id="_IHuSCODtMuCv_vOUnTP-13" value="" style="endArrow=none;html=1;rounded=0;" edge="1" parent="1">
          <mxGeometry width="50" height="50" relative="1" as="geometry">
            <mxPoint x="315" y="309" as="sourcePoint" />
            <mxPoint x="315" y="269" as="targetPoint" />
          </mxGeometry>
        </mxCell>
        <mxCell id="_IHuSCODtMuCv_vOUnTP-14" value="" style="endArrow=none;html=1;rounded=0;" edge="1" parent="1">
          <mxGeometry width="50" height="50" relative="1" as="geometry">
            <mxPoint x="694.5" y="309" as="sourcePoint" />
            <mxPoint x="694.5" y="269" as="targetPoint" />
          </mxGeometry>
        </mxCell>
        <mxCell id="_IHuSCODtMuCv_vOUnTP-15" value="" style="endArrow=none;html=1;rounded=0;" edge="1" parent="1">
          <mxGeometry width="50" height="50" relative="1" as="geometry">
            <mxPoint x="315" y="269" as="sourcePoint" />
            <mxPoint x="695" y="269" as="targetPoint" />
          </mxGeometry>
        </mxCell>
        <mxCell id="_IHuSCODtMuCv_vOUnTP-18" value="" style="endArrow=none;html=1;rounded=0;" edge="1" parent="1">
          <mxGeometry width="50" height="50" relative="1" as="geometry">
            <mxPoint x="695" y="419" as="sourcePoint" />
            <mxPoint x="695" y="369" as="targetPoint" />
          </mxGeometry>
        </mxCell>
        <mxCell id="_IHuSCODtMuCv_vOUnTP-19" value="" style="endArrow=none;html=1;rounded=0;" edge="1" parent="1">
          <mxGeometry width="50" height="50" relative="1" as="geometry">
            <mxPoint x="494.5" y="419" as="sourcePoint" />
            <mxPoint x="494.5" y="369" as="targetPoint" />
          </mxGeometry>
        </mxCell>
        <mxCell id="_IHuSCODtMuCv_vOUnTP-20" value="" style="endArrow=none;html=1;rounded=0;" edge="1" parent="1">
          <mxGeometry width="50" height="50" relative="1" as="geometry">
            <mxPoint x="315" y="419" as="sourcePoint" />
            <mxPoint x="315" y="369" as="targetPoint" />
          </mxGeometry>
        </mxCell>
        <mxCell id="_IHuSCODtMuCv_vOUnTP-21" value="" style="endArrow=none;html=1;rounded=0;exitX=0.5;exitY=0;exitDx=0;exitDy=0;" edge="1" parent="1" source="_IHuSCODtMuCv_vOUnTP-9">
          <mxGeometry width="50" height="50" relative="1" as="geometry">
            <mxPoint x="694.5" y="529" as="sourcePoint" />
            <mxPoint x="694.5" y="479" as="targetPoint" />
          </mxGeometry>
        </mxCell>
        <mxCell id="_IHuSCODtMuCv_vOUnTP-22" value="" style="endArrow=none;html=1;rounded=0;" edge="1" parent="1">
          <mxGeometry width="50" height="50" relative="1" as="geometry">
            <mxPoint x="535" y="539" as="sourcePoint" />
            <mxPoint x="855" y="539" as="targetPoint" />
          </mxGeometry>
        </mxCell>
        <mxCell id="_IHuSCODtMuCv_vOUnTP-23" value="" style="endArrow=none;html=1;rounded=0;" edge="1" parent="1">
          <mxGeometry width="50" height="50" relative="1" as="geometry">
            <mxPoint x="534.5" y="579" as="sourcePoint" />
            <mxPoint x="535" y="539" as="targetPoint" />
          </mxGeometry>
        </mxCell>
        <mxCell id="_IHuSCODtMuCv_vOUnTP-24" value="" style="endArrow=none;html=1;rounded=0;" edge="1" parent="1">
          <mxGeometry width="50" height="50" relative="1" as="geometry">
            <mxPoint x="854.5" y="579" as="sourcePoint" />
            <mxPoint x="855" y="539" as="targetPoint" />
          </mxGeometry>
        </mxCell>
        <mxCell id="_IHuSCODtMuCv_vOUnTP-25" value="&lt;h1&gt;Inheritance&lt;/h1&gt;&lt;p&gt;The object inheritance diagram of Video 11 - Enemy Factions (2/3)&lt;/p&gt;&lt;p&gt;SpaceRocksGML&lt;/p&gt;" style="text;html=1;strokeColor=none;fillColor=none;spacing=5;spacingTop=-20;whiteSpace=wrap;overflow=hidden;rounded=0;" vertex="1" parent="1">
          <mxGeometry x="30" y="690" width="190" height="120" as="geometry" />
        </mxCell>
      </root>
    </mxGraphModel>
  </diagram>
</mxfile>
